HIERARCHY
ROOT hip
{
	OFFSET 0.000000 0.000000 0.000000 
	CHANNELS 6 Xposition Yposition Zposition Xrotation Zrotation Yrotation
	JOINT abdomen
	{
		OFFSET 0.000000 3.402643 0.000000 
		CHANNELS 3 Xrotation Zrotation Yrotation
		JOINT chest
		{
			OFFSET 0.000000 8.438565 -0.680529 
			CHANNELS 3 Xrotation Zrotation Yrotation
			JOINT neck
			{
				OFFSET 0.000000 10.207942 -0.272212 
				CHANNELS 3 Xrotation Zrotation Yrotation
				JOINT head
				{
					OFFSET 0.000000 3.130431 0.000000 
					CHANNELS 3 Xrotation Zrotation Yrotation
					End Site
					{
						OFFSET 0.000000 3.130435 0.000000 
					}
				}
			}
			JOINT lCollar
			{
				OFFSET 3.470700 6.669187 -0.816635 
				CHANNELS 3 Yrotation Zrotation Xrotation
				JOINT lShldr
				{
					OFFSET 3.198488 0.000000 0.000000 
					CHANNELS 3 Zrotation Yrotation Xrotation
					JOINT lForeArm
					{
						OFFSET 10.139888 0.000000 0.000000 
						CHANNELS 3 Yrotation Zrotation Xrotation
						JOINT lHand
						{
							OFFSET 8.370511 0.000000 0.000000 
							CHANNELS 3 Zrotation Yrotation Xrotation
							End Site
							{
								OFFSET 4.083176 0.000000 0.000000 
							}
						}
					}
				}
			}
			JOINT rCollar
			{
				OFFSET -3.470700 6.669187 -0.816635 
				CHANNELS 3 Yrotation Zrotation Xrotation
				JOINT rShldr
				{
					OFFSET -3.198488 0.000000 0.000000 
					CHANNELS 3 Zrotation Yrotation Xrotation
					JOINT rForeArm
					{
						OFFSET -10.139888 0.000000 0.000000 
						CHANNELS 3 Yrotation Zrotation Xrotation
						JOINT rHand
						{
							OFFSET -8.370511 0.000000 0.000000 
							CHANNELS 3 Zrotation Yrotation Xrotation
							End Site
							{
								OFFSET -4.083176 0.000000 0.000000 
							}
						}
					}
				}
			}
		}
	}
	JOINT lThigh
	{
		OFFSET 5.308129 -1.633274 1.361059 
		CHANNELS 3 Xrotation Zrotation Yrotation
		JOINT lShin
		{
			OFFSET -2.041588 -20.007561 0.000000 
			CHANNELS 3 Xrotation Zrotation Yrotation
			JOINT lFoot
			{
				OFFSET 0.000000 -19.190928 -1.224953 
				CHANNELS 3 Xrotation Yrotation Zrotation
				End Site
				{
					OFFSET 0.000000 -2.449906 4.627600 
				}
			}
		}
	}
	JOINT rThigh
	{
		OFFSET -5.308129 -1.633274 1.361059 
		CHANNELS 3 Xrotation Zrotation Yrotation
		JOINT rShin
		{
			OFFSET 2.041588 -20.007561 0.000000 
			CHANNELS 3 Xrotation Zrotation Yrotation
			JOINT rFoot
			{
				OFFSET 0.000000 -19.190928 -1.224953 
				CHANNELS 3 Xrotation Yrotation Zrotation
				End Site
				{
					OFFSET 0.000000 -2.449906 4.627600 
				}
			}
		}
	}
}
MOTION
Frames: 6
Frame Time: 0.016667
0.114951 53.023273 -0.311046 -11.221041 0.849116 1.953344 24.005274 0.796439 -0.701107 3.349090 1.034727 -2.490494 7.009711 5.835901 0.523852 16.671614 -10.302074 10.044972 -17.145369 -7.794811 -0.401989 -66.006279 15.987690 -26.647381 -26.274515 -5.000000 25.171051 -17.343296 6.069513 16.409025 15.210562 10.028087 -0.521884 65.876434 -9.465901 -20.473095 23.301641 5.000000 19.419128 7.923007 -30.000000 6.402734 17.448040 15.165392 14.901823 5.893943 -3.573412 -0.489835 -8.274278 -2.155217 -13.160890 20.799389 -9.921854 -2.220484 -2.513238 2.288885 -0.109006 -2.260787 -20.388956 9.703557 
0.100659 53.023533 -0.316892 -11.179388 0.868568 2.080431 24.034092 0.765892 -0.703970 3.387447 1.034706 -2.539316 7.099761 5.858100 0.541143 16.620699 -10.245606 10.004816 -17.225693 -8.097134 -0.417569 -65.692162 15.552403 -26.203493 -26.390381 -5.000000 25.097715 -17.320726 6.011622 16.324503 15.272285 10.359659 -0.539031 65.731285 -9.305575 -20.415932 23.566458 5.000000 19.776445 8.106137 -30.000000 6.139924 17.361433 15.214728 14.776621 5.890033 -3.579889 -0.490023 -8.256021 -2.167290 -13.154443 20.811546 -9.859354 -2.335900 -2.584856 2.253697 -0.092069 -2.222112 -20.501028 9.705914 
0.085290 53.023125 -0.320289 -11.137649 0.888013 2.207371 24.062794 0.738860 -0.716004 3.436213 1.024935 -2.558844 7.188920 5.888511 0.546373 16.548450 -10.198737 9.962930 -17.306108 -8.399455 -0.434563 -65.382217 15.121733 -25.787287 -26.522154 -5.000000 25.030813 -17.313639 5.935830 16.235764 15.324352 10.691234 -0.557972 65.587502 -9.149070 -20.370043 23.819696 5.000000 20.115879 8.275538 -30.000000 5.901766 17.262686 15.233170 14.653819 5.901648 -3.561474 -0.470591 -8.234663 -2.159392 -13.160268 20.847069 -9.814120 -2.423844 -2.653173 2.233333 -0.104952 -2.185903 -20.559317 9.709869 
0.069096 53.021355 -0.320267 -11.146243 0.868420 2.334308 24.101830 0.747290 -0.764032 3.532886 1.063985 -2.549079 7.278089 5.918921 0.551601 16.441668 -10.170789 9.932382 -17.405983 -8.682274 -0.449163 -65.111099 14.705795 -25.388477 -26.733328 -5.000000 24.928970 -17.289904 5.813789 16.089134 15.396057 11.022807 -0.575138 65.423904 -8.968527 -20.323885 24.059160 5.000000 20.421244 8.434797 -30.000000 5.687012 17.212870 15.301008 14.535979 5.901679 -3.541944 -0.479693 -8.236904 -2.173440 -13.198778 20.896063 -9.715841 -2.509451 -2.691586 2.203575 -0.086414 -2.152101 -20.596117 9.740765 
0.052272 53.019066 -0.317927 -11.164833 0.848832 2.451482 24.141132 0.748513 -0.793907 3.629948 1.103047 -2.529551 7.358505 5.950774 0.566435 16.313574 -10.142533 9.911448 -17.505854 -8.955337 -0.463249 -64.842133 14.291279 -25.002481 -26.965471 -5.000000 24.813997 -17.276011 5.691688 15.932110 15.467870 11.354378 -0.592285 65.250816 -8.791212 -20.277437 24.303913 5.000000 20.704636 8.587603 -30.000000 5.497198 17.205797 15.409817 14.439915 5.883668 -3.552560 -0.488462 -8.262670 -2.249700 -13.224920 20.978806 -9.616172 -2.625923 -2.758653 2.183144 -0.079678 -2.159621 -20.640810 9.688456 
0.035795 53.018002 -0.314791 -11.163248 0.838987 2.588185 24.170465 0.732079 -0.831345 3.707218 1.132331 -2.529550 7.447598 5.971528 0.573121 16.195190 -10.104351 9.900126 -17.605629 -9.208897 -0.476320 -64.593925 13.900820 -24.632399 -27.221985 -5.000000 24.696535 -17.262476 5.566803 15.766644 15.539582 11.666446 -0.610379 65.086807 -8.591292 -20.177155 24.513615 5.000000 20.956669 8.681194 -30.000000 5.324546 17.143297 15.447437 14.314718 5.879179 -3.541472 -0.478308 -8.254698 -2.255192 -13.237457 21.029234 -9.538458 -2.736345 -2.807226 2.154526 -0.051935 -2.164861 -20.677078 9.674824 
